# xmcd
#
# Track frame offsets:
#	150
#	17565
#	43983
#	69477
#	98368
#	113900
#	143857
#	164035
#	188274
#	206813
#
# Disc length: 3078 seconds
# Revision: 0
# Processed by: cddbd v1.5.2PL0 Copyright (c) Steve Scherf et al.
# Submitted via: dBpowerAMP V12.0
#
DISCID=860c040a
DTITLE=Darrell Scott - Ten
DYEAR=2015
DGENRE=Folk
TTITLE0=The One I'm Still Thinking About
TTITLE1=Born In '55 
TTITLE2=Lone Pine
TTITLE3=Thanksgiving 1985
TTITLE4=Country Music, I'm Talking To You
TTITLE5=Green Heart
TTITLE6=His Chosen Time 
TTITLE7=Sage After Rain
TTITLE8=In The Light Of Day
TTITLE9=I Got To Leave You Now
EXTD=
EXTT0=
EXTT1=
EXTT2=
EXTT3=
EXTT4=
EXTT5=
EXTT6=
EXTT7=
EXTT8=
EXTT9=
PLAYORDER=
